<mxfile host="app.diagrams.net" modified="2021-11-20T10:19:50.855Z" agent="5.0 (Windows NT 10.0; Win64; x64) AppleWebKit/537.36 (KHTML, like Gecko) Chrome/96.0.4664.45 Safari/537.36" etag="WZIs8i4_GdCRfpDhKc7x" version="15.8.2" type="github">
  <diagram id="gB-4uAn976fWMZ7fgPGc" name="Page-1">
    <mxGraphModel dx="1760" dy="688" grid="1" gridSize="10" guides="1" tooltips="1" connect="1" arrows="1" fold="1" page="1" pageScale="1" pageWidth="850" pageHeight="1100" math="0" shadow="0">
      <root>
        <mxCell id="0" />
        <mxCell id="1" parent="0" />
        <mxCell id="wEdhSjnp1pG5LnNztWko-1" value="" style="ellipse;whiteSpace=wrap;html=1;" vertex="1" parent="1">
          <mxGeometry x="360" y="60" width="110" height="50" as="geometry" />
        </mxCell>
        <mxCell id="wEdhSjnp1pG5LnNztWko-2" value="" style="endArrow=classic;html=1;rounded=0;" edge="1" parent="1">
          <mxGeometry width="50" height="50" relative="1" as="geometry">
            <mxPoint x="415" y="110" as="sourcePoint" />
            <mxPoint x="415" y="160" as="targetPoint" />
          </mxGeometry>
        </mxCell>
        <mxCell id="wEdhSjnp1pG5LnNztWko-3" value="" style="shape=hexagon;perimeter=hexagonPerimeter2;whiteSpace=wrap;html=1;fixedSize=1;size=28.75;" vertex="1" parent="1">
          <mxGeometry x="351.25" y="160" width="127.5" height="70" as="geometry" />
        </mxCell>
        <mxCell id="wEdhSjnp1pG5LnNztWko-4" value="" style="endArrow=classic;html=1;rounded=0;" edge="1" parent="1">
          <mxGeometry width="50" height="50" relative="1" as="geometry">
            <mxPoint x="415.13" y="230" as="sourcePoint" />
            <mxPoint x="415" y="280" as="targetPoint" />
            <Array as="points">
              <mxPoint x="415.13" y="250" />
              <mxPoint x="415.13" y="270" />
            </Array>
          </mxGeometry>
        </mxCell>
        <mxCell id="wEdhSjnp1pG5LnNztWko-5" value="" style="shape=hexagon;perimeter=hexagonPerimeter2;whiteSpace=wrap;html=1;fixedSize=1;size=28.75;" vertex="1" parent="1">
          <mxGeometry x="351.25" y="280" width="128.75" height="60" as="geometry" />
        </mxCell>
        <mxCell id="wEdhSjnp1pG5LnNztWko-7" value="" style="endArrow=classic;html=1;rounded=0;" edge="1" parent="1">
          <mxGeometry width="50" height="50" relative="1" as="geometry">
            <mxPoint x="414.5" y="350" as="sourcePoint" />
            <mxPoint x="414.75" y="390" as="targetPoint" />
            <Array as="points">
              <mxPoint x="414.75" y="340" />
            </Array>
          </mxGeometry>
        </mxCell>
        <mxCell id="wEdhSjnp1pG5LnNztWko-8" value="" style="shape=parallelogram;perimeter=parallelogramPerimeter;whiteSpace=wrap;html=1;fixedSize=1;" vertex="1" parent="1">
          <mxGeometry x="348.5" y="390" width="134.25" height="40" as="geometry" />
        </mxCell>
        <mxCell id="wEdhSjnp1pG5LnNztWko-9" value="" style="endArrow=classic;html=1;rounded=0;exitX=0.5;exitY=1;exitDx=0;exitDy=0;" edge="1" parent="1" source="wEdhSjnp1pG5LnNztWko-8">
          <mxGeometry width="50" height="50" relative="1" as="geometry">
            <mxPoint x="415" y="460" as="sourcePoint" />
            <mxPoint x="416" y="480" as="targetPoint" />
          </mxGeometry>
        </mxCell>
        <mxCell id="wEdhSjnp1pG5LnNztWko-17" value="" style="edgeStyle=orthogonalEdgeStyle;rounded=0;orthogonalLoop=1;jettySize=auto;html=1;" edge="1" parent="1" source="wEdhSjnp1pG5LnNztWko-10" target="wEdhSjnp1pG5LnNztWko-13">
          <mxGeometry relative="1" as="geometry" />
        </mxCell>
        <mxCell id="wEdhSjnp1pG5LnNztWko-10" value="" style="rounded=1;whiteSpace=wrap;html=1;arcSize=8;" vertex="1" parent="1">
          <mxGeometry x="360" y="480" width="115" height="40" as="geometry" />
        </mxCell>
        <mxCell id="wEdhSjnp1pG5LnNztWko-12" value="" style="endArrow=classic;html=1;rounded=0;exitX=0.5;exitY=1;exitDx=0;exitDy=0;" edge="1" parent="1" source="wEdhSjnp1pG5LnNztWko-10" target="wEdhSjnp1pG5LnNztWko-13">
          <mxGeometry width="50" height="50" relative="1" as="geometry">
            <mxPoint x="415.76" y="530" as="sourcePoint" />
            <mxPoint x="415.76" y="580" as="targetPoint" />
          </mxGeometry>
        </mxCell>
        <mxCell id="wEdhSjnp1pG5LnNztWko-13" value="" style="rhombus;whiteSpace=wrap;html=1;" vertex="1" parent="1">
          <mxGeometry x="354.62" y="570" width="125.76" height="60" as="geometry" />
        </mxCell>
        <mxCell id="wEdhSjnp1pG5LnNztWko-15" value="" style="endArrow=classic;html=1;rounded=0;" edge="1" parent="1">
          <mxGeometry width="50" height="50" relative="1" as="geometry">
            <mxPoint x="415.13" y="630" as="sourcePoint" />
            <mxPoint x="416.13" y="680" as="targetPoint" />
          </mxGeometry>
        </mxCell>
        <mxCell id="wEdhSjnp1pG5LnNztWko-16" value="" style="rhombus;whiteSpace=wrap;html=1;" vertex="1" parent="1">
          <mxGeometry x="354.62" y="680" width="125.38" height="80" as="geometry" />
        </mxCell>
        <mxCell id="wEdhSjnp1pG5LnNztWko-18" value="" style="endArrow=classic;html=1;rounded=0;" edge="1" parent="1" target="wEdhSjnp1pG5LnNztWko-19">
          <mxGeometry width="50" height="50" relative="1" as="geometry">
            <mxPoint x="417" y="760" as="sourcePoint" />
            <mxPoint x="417" y="790" as="targetPoint" />
            <Array as="points" />
          </mxGeometry>
        </mxCell>
        <mxCell id="wEdhSjnp1pG5LnNztWko-19" value="" style="rounded=1;whiteSpace=wrap;html=1;arcSize=8;" vertex="1" parent="1">
          <mxGeometry x="351.25" y="810" width="133" height="40" as="geometry" />
        </mxCell>
        <mxCell id="wEdhSjnp1pG5LnNztWko-20" value="" style="endArrow=classic;html=1;rounded=0;" edge="1" parent="1">
          <mxGeometry width="50" height="50" relative="1" as="geometry">
            <mxPoint x="416.81" y="850" as="sourcePoint" />
            <mxPoint x="416.81" y="900" as="targetPoint" />
          </mxGeometry>
        </mxCell>
        <mxCell id="wEdhSjnp1pG5LnNztWko-21" value="" style="endArrow=none;html=1;rounded=0;exitX=1;exitY=0.5;exitDx=0;exitDy=0;" edge="1" parent="1" source="wEdhSjnp1pG5LnNztWko-16">
          <mxGeometry width="50" height="50" relative="1" as="geometry">
            <mxPoint x="490" y="720" as="sourcePoint" />
            <mxPoint x="510" y="720" as="targetPoint" />
          </mxGeometry>
        </mxCell>
        <mxCell id="wEdhSjnp1pG5LnNztWko-22" value="No" style="text;html=1;strokeColor=none;fillColor=none;align=center;verticalAlign=middle;whiteSpace=wrap;rounded=0;" vertex="1" parent="1">
          <mxGeometry x="490" y="705" width="60" height="30" as="geometry" />
        </mxCell>
        <mxCell id="wEdhSjnp1pG5LnNztWko-23" value="" style="endArrow=none;html=1;rounded=0;" edge="1" parent="1">
          <mxGeometry width="50" height="50" relative="1" as="geometry">
            <mxPoint x="530" y="719.5" as="sourcePoint" />
            <mxPoint x="560" y="720" as="targetPoint" />
          </mxGeometry>
        </mxCell>
        <mxCell id="wEdhSjnp1pG5LnNztWko-24" value="" style="endArrow=none;html=1;rounded=0;" edge="1" parent="1">
          <mxGeometry width="50" height="50" relative="1" as="geometry">
            <mxPoint x="560" y="900" as="sourcePoint" />
            <mxPoint x="560" y="720" as="targetPoint" />
          </mxGeometry>
        </mxCell>
        <mxCell id="wEdhSjnp1pG5LnNztWko-25" value="" style="endArrow=none;html=1;rounded=0;" edge="1" parent="1">
          <mxGeometry width="50" height="50" relative="1" as="geometry">
            <mxPoint x="200" y="900" as="sourcePoint" />
            <mxPoint x="560" y="900" as="targetPoint" />
          </mxGeometry>
        </mxCell>
        <mxCell id="wEdhSjnp1pG5LnNztWko-26" value="" style="endArrow=classic;html=1;rounded=0;" edge="1" parent="1">
          <mxGeometry width="50" height="50" relative="1" as="geometry">
            <mxPoint x="200" y="900" as="sourcePoint" />
            <mxPoint x="200" y="840" as="targetPoint" />
          </mxGeometry>
        </mxCell>
        <mxCell id="wEdhSjnp1pG5LnNztWko-27" value="" style="rounded=1;whiteSpace=wrap;html=1;arcSize=8;" vertex="1" parent="1">
          <mxGeometry x="160" y="810" width="80" height="30" as="geometry" />
        </mxCell>
        <mxCell id="wEdhSjnp1pG5LnNztWko-29" value="" style="endArrow=classic;html=1;rounded=0;exitX=0.5;exitY=0;exitDx=0;exitDy=0;entryX=0;entryY=0.5;entryDx=0;entryDy=0;" edge="1" parent="1" source="wEdhSjnp1pG5LnNztWko-27" target="wEdhSjnp1pG5LnNztWko-13">
          <mxGeometry width="50" height="50" relative="1" as="geometry">
            <mxPoint x="200" y="800" as="sourcePoint" />
            <mxPoint x="200" y="600" as="targetPoint" />
            <Array as="points">
              <mxPoint x="200" y="720" />
              <mxPoint x="200" y="600" />
            </Array>
          </mxGeometry>
        </mxCell>
        <mxCell id="wEdhSjnp1pG5LnNztWko-35" value="" style="endArrow=none;html=1;rounded=0;exitX=1;exitY=0.5;exitDx=0;exitDy=0;" edge="1" parent="1" source="wEdhSjnp1pG5LnNztWko-13">
          <mxGeometry width="50" height="50" relative="1" as="geometry">
            <mxPoint x="484.25" y="600" as="sourcePoint" />
            <mxPoint x="500" y="600" as="targetPoint" />
          </mxGeometry>
        </mxCell>
        <mxCell id="wEdhSjnp1pG5LnNztWko-37" value="No" style="text;html=1;strokeColor=none;fillColor=none;align=center;verticalAlign=middle;whiteSpace=wrap;rounded=0;" vertex="1" parent="1">
          <mxGeometry x="478.75" y="585" width="60" height="30" as="geometry" />
        </mxCell>
        <mxCell id="wEdhSjnp1pG5LnNztWko-39" value="" style="endArrow=classic;html=1;rounded=0;" edge="1" parent="1">
          <mxGeometry width="50" height="50" relative="1" as="geometry">
            <mxPoint x="510" y="600" as="sourcePoint" />
            <mxPoint x="760" y="640" as="targetPoint" />
            <Array as="points">
              <mxPoint x="600" y="600" />
              <mxPoint x="760" y="600" />
            </Array>
          </mxGeometry>
        </mxCell>
        <mxCell id="wEdhSjnp1pG5LnNztWko-41" value="Yes" style="text;html=1;strokeColor=none;fillColor=none;align=center;verticalAlign=middle;whiteSpace=wrap;rounded=0;" vertex="1" parent="1">
          <mxGeometry x="387.31" y="770" width="60" height="30" as="geometry" />
        </mxCell>
        <mxCell id="wEdhSjnp1pG5LnNztWko-43" value="" style="shape=parallelogram;perimeter=parallelogramPerimeter;whiteSpace=wrap;html=1;fixedSize=1;size=20;" vertex="1" parent="1">
          <mxGeometry x="690" y="640" width="130" height="50" as="geometry" />
        </mxCell>
        <mxCell id="wEdhSjnp1pG5LnNztWko-44" value="" style="shape=parallelogram;perimeter=parallelogramPerimeter;whiteSpace=wrap;html=1;fixedSize=1;size=20;" vertex="1" parent="1">
          <mxGeometry x="690" y="750" width="130" height="50" as="geometry" />
        </mxCell>
        <mxCell id="wEdhSjnp1pG5LnNztWko-45" value="" style="endArrow=classic;html=1;rounded=0;entryX=0.554;entryY=0.04;entryDx=0;entryDy=0;entryPerimeter=0;" edge="1" parent="1" target="wEdhSjnp1pG5LnNztWko-44">
          <mxGeometry width="50" height="50" relative="1" as="geometry">
            <mxPoint x="760" y="690" as="sourcePoint" />
            <mxPoint x="760" y="740" as="targetPoint" />
          </mxGeometry>
        </mxCell>
        <mxCell id="wEdhSjnp1pG5LnNztWko-46" value="" style="endArrow=classic;html=1;rounded=0;" edge="1" parent="1">
          <mxGeometry width="50" height="50" relative="1" as="geometry">
            <mxPoint x="760" y="800" as="sourcePoint" />
            <mxPoint x="762" y="862" as="targetPoint" />
          </mxGeometry>
        </mxCell>
        <mxCell id="wEdhSjnp1pG5LnNztWko-47" value="" style="ellipse;whiteSpace=wrap;html=1;" vertex="1" parent="1">
          <mxGeometry x="710" y="860" width="100" height="50" as="geometry" />
        </mxCell>
        <mxCell id="wEdhSjnp1pG5LnNztWko-48" value="&lt;font style=&quot;font-size: 18px&quot;&gt;START&lt;/font&gt;" style="text;html=1;strokeColor=none;fillColor=none;align=center;verticalAlign=middle;whiteSpace=wrap;rounded=0;" vertex="1" parent="1">
          <mxGeometry x="382.31" y="70" width="70" height="30" as="geometry" />
        </mxCell>
        <mxCell id="wEdhSjnp1pG5LnNztWko-49" value="END" style="text;html=1;strokeColor=none;fillColor=none;align=center;verticalAlign=middle;whiteSpace=wrap;rounded=0;fontSize=18;" vertex="1" parent="1">
          <mxGeometry x="730" y="870" width="60" height="30" as="geometry" />
        </mxCell>
        <mxCell id="wEdhSjnp1pG5LnNztWko-51" value="&lt;font style=&quot;font-size: 10px&quot;&gt;int hasil survey [12] = { 20. 30. 25,15, 90,34, 21,17, 40,55, 34,38}&lt;/font&gt;" style="text;html=1;strokeColor=none;fillColor=none;align=center;verticalAlign=middle;whiteSpace=wrap;rounded=0;fontSize=12;" vertex="1" parent="1">
          <mxGeometry x="367.31" y="180" width="100" height="30" as="geometry" />
        </mxCell>
        <mxCell id="wEdhSjnp1pG5LnNztWko-52" value="int minimumMenit = 0&lt;br&gt;int jumlahPengguna = 0" style="text;html=1;strokeColor=none;fillColor=none;align=center;verticalAlign=middle;whiteSpace=wrap;rounded=0;fontSize=10;" vertex="1" parent="1">
          <mxGeometry x="347.31" y="280" width="140" height="60" as="geometry" />
        </mxCell>
        <mxCell id="wEdhSjnp1pG5LnNztWko-53" value="INPUT minimumMenit" style="text;html=1;strokeColor=none;fillColor=none;align=center;verticalAlign=middle;whiteSpace=wrap;rounded=0;fontSize=10;" vertex="1" parent="1">
          <mxGeometry x="360.63" y="400" width="110" height="20" as="geometry" />
        </mxCell>
        <mxCell id="wEdhSjnp1pG5LnNztWko-54" value="&lt;font style=&quot;font-size: 14px&quot;&gt;int i = 0&lt;/font&gt;" style="text;html=1;strokeColor=none;fillColor=none;align=center;verticalAlign=middle;whiteSpace=wrap;rounded=0;fontSize=10;" vertex="1" parent="1">
          <mxGeometry x="385" y="490" width="60" height="30" as="geometry" />
        </mxCell>
        <mxCell id="wEdhSjnp1pG5LnNztWko-55" value="&lt;font style=&quot;font-size: 14px&quot;&gt;i &amp;lt; 12&lt;/font&gt;" style="text;html=1;strokeColor=none;fillColor=none;align=center;verticalAlign=middle;whiteSpace=wrap;rounded=0;fontSize=10;" vertex="1" parent="1">
          <mxGeometry x="387.31" y="585" width="60" height="30" as="geometry" />
        </mxCell>
        <mxCell id="wEdhSjnp1pG5LnNztWko-56" value="&lt;font style=&quot;font-size: 11px&quot;&gt;hasilSurvey[i]&lt;br&gt;&amp;gt;minimumMenit&amp;nbsp;&lt;/font&gt;" style="text;html=1;strokeColor=none;fillColor=none;align=center;verticalAlign=middle;whiteSpace=wrap;rounded=0;fontSize=14;" vertex="1" parent="1">
          <mxGeometry x="370.34999999999997" y="695" width="94.8" height="40" as="geometry" />
        </mxCell>
        <mxCell id="wEdhSjnp1pG5LnNztWko-58" value="&lt;font style=&quot;font-size: 12px&quot;&gt;jumlahPengguna++&lt;/font&gt;" style="text;html=1;strokeColor=none;fillColor=none;align=center;verticalAlign=middle;whiteSpace=wrap;rounded=0;fontSize=11;" vertex="1" parent="1">
          <mxGeometry x="385.63" y="815" width="60" height="30" as="geometry" />
        </mxCell>
        <mxCell id="wEdhSjnp1pG5LnNztWko-61" value="Yes" style="text;html=1;strokeColor=none;fillColor=none;align=center;verticalAlign=middle;whiteSpace=wrap;rounded=0;" vertex="1" parent="1">
          <mxGeometry x="387.31" y="640" width="60" height="30" as="geometry" />
        </mxCell>
        <mxCell id="wEdhSjnp1pG5LnNztWko-62" value="&lt;font style=&quot;font-size: 14px&quot;&gt;j++&lt;/font&gt;" style="text;html=1;strokeColor=none;fillColor=none;align=center;verticalAlign=middle;whiteSpace=wrap;rounded=0;fontSize=12;" vertex="1" parent="1">
          <mxGeometry x="170" y="810" width="60" height="30" as="geometry" />
        </mxCell>
        <mxCell id="wEdhSjnp1pG5LnNztWko-64" value="Text" style="text;html=1;strokeColor=none;fillColor=none;align=center;verticalAlign=middle;whiteSpace=wrap;rounded=0;fontSize=14;" vertex="1" parent="1">
          <mxGeometry x="540" y="770" width="60" height="30" as="geometry" />
        </mxCell>
        <mxCell id="wEdhSjnp1pG5LnNztWko-65" value="&lt;font style=&quot;font-size: 12px&quot;&gt;OUTPUT&lt;br&gt;jumlahPengguna&lt;/font&gt;" style="text;html=1;strokeColor=none;fillColor=none;align=center;verticalAlign=middle;whiteSpace=wrap;rounded=0;fontSize=14;" vertex="1" parent="1">
          <mxGeometry x="730" y="760" width="50" height="30" as="geometry" />
        </mxCell>
        <mxCell id="wEdhSjnp1pG5LnNztWko-66" value="&lt;font style=&quot;font-size: 11px&quot;&gt;OUTPUT&lt;br&gt;minimumMenit&lt;/font&gt;" style="text;html=1;strokeColor=none;fillColor=none;align=center;verticalAlign=middle;whiteSpace=wrap;rounded=0;fontSize=14;" vertex="1" parent="1">
          <mxGeometry x="700" y="650" width="110" height="30" as="geometry" />
        </mxCell>
      </root>
    </mxGraphModel>
  </diagram>
</mxfile>
